<?xml version="1.0" encoding="UTF-8"?>
<svg xmlns="http://www.w3.org/2000/svg" xmlns:xlink="http://www.w3.org/1999/xlink" width="680px" height="214px" viewBox="0 0 680 214" version="1.1">
<g id="surface1">
<path style=" stroke:none;fill-rule:nonzero;fill:rgb(98.039216%,98.039216%,98.039216%);fill-opacity:1;" d="M 180.082031 55.914062 C 182.828125 58.589844 184.546875 62.355469 184.609375 66.191406 C 184.566406 70.246094 182.792969 73.71875 180.066406 76.648438 C 177.042969 79.429688 173.675781 80.335938 169.683594 80.40625 C 164.148438 80.582031 159.726562 81.785156 155.738281 85.878906 C 155.480469 86.128906 155.222656 86.375 154.953125 86.632812 C 149.929688 94.242188 150.820312 106.855469 152.511719 115.328125 C 153.488281 119.855469 155.253906 122.863281 159.183594 125.410156 C 160.855469 126.394531 162.535156 127.074219 164.40625 127.5625 C 164.617188 127.617188 164.828125 127.671875 165.046875 127.730469 C 165.917969 127.855469 166.742188 127.84375 167.617188 127.820312 C 172.417969 127.707031 176.769531 128.585938 180.355469 132 C 183.148438 135.03125 184.710938 138.761719 184.625 142.878906 C 184.28125 146.46875 182.730469 150.09375 179.949219 152.476562 C 176.21875 155.203125 172.90625 156.1875 168.324219 155.8125 C 164.675781 155.160156 161.355469 153.175781 159.203125 150.140625 C 157.300781 147.144531 156.527344 144.222656 156.597656 140.707031 C 156.632812 135.917969 155.945312 131.039062 152.527344 127.394531 C 152.199219 127.078125 151.875 126.757812 151.546875 126.441406 C 151.546875 126.257812 151.546875 126.074219 151.546875 125.882812 C 151.386719 125.808594 151.222656 125.734375 151.058594 125.660156 C 150.386719 125.300781 149.871094 124.886719 149.292969 124.394531 C 145.535156 121.453125 141.378906 120.984375 136.792969 121.359375 C 131.171875 121.773438 126.453125 120.71875 122.023438 117.019531 C 118.585938 113.714844 116.683594 109.417969 116.480469 104.664062 C 116.402344 99.726562 118.265625 95.351562 121.628906 91.753906 C 122.425781 91.035156 123.261719 90.40625 124.144531 89.796875 C 124.417969 89.601562 124.417969 89.601562 124.691406 89.40625 C 127.308594 87.640625 130.109375 86.941406 133.230469 87.011719 C 133.703125 87.015625 134.175781 87.023438 134.648438 87.027344 C 135.386719 87.039062 136.125 87.050781 136.859375 87.066406 C 142.40625 87.1875 147.023438 86.289062 151.1875 82.320312 C 151.398438 82.109375 151.609375 81.898438 151.824219 81.683594 C 152.003906 81.511719 152.183594 81.339844 152.367188 81.164062 C 156.140625 77.238281 156.648438 72.273438 156.566406 67.105469 C 156.523438 62.960938 157.789062 59.613281 160.644531 56.597656 C 166.265625 51.269531 174.0625 51.175781 180.082031 55.914062 Z M 180.082031 55.914062 "/>
<path style=" stroke:none;fill-rule:nonzero;fill:rgb(98.039216%,98.039216%,98.039216%);fill-opacity:1;" d="M 107.367188 126.441406 C 111.53125 129.640625 113.902344 133.855469 114.636719 139.03125 C 114.738281 140.542969 114.707031 142.023438 114.5 143.523438 C 113.867188 148.488281 115.105469 152.777344 118.011719 156.8125 C 118.277344 157.136719 118.550781 157.457031 118.832031 157.773438 C 118.96875 157.933594 119.101562 158.09375 119.242188 158.261719 C 121.964844 161.257812 125.785156 162.871094 129.738281 163.367188 C 130.351562 163.394531 130.96875 163.410156 131.582031 163.417969 C 131.929688 163.421875 132.273438 163.429688 132.628906 163.4375 C 133.339844 163.449219 134.050781 163.457031 134.765625 163.464844 C 138.234375 163.539062 140.945312 164.347656 143.71875 166.445312 C 143.964844 166.617188 144.214844 166.789062 144.46875 166.96875 C 147.109375 169.394531 148.765625 172.945312 149.109375 176.5 C 149.222656 180.289062 148.085938 183.757812 145.621094 186.636719 C 143.035156 189.363281 139.929688 191.117188 136.140625 191.40625 C 131.722656 191.503906 128.261719 190.085938 125.035156 187.074219 C 123.777344 185.757812 122.960938 184.308594 122.1875 182.667969 C 122.09375 182.480469 122.003906 182.292969 121.910156 182.097656 C 121.078125 180.296875 121.042969 178.546875 121.003906 176.597656 C 120.878906 171.085938 119.8125 166.464844 115.785156 162.433594 C 113.195312 160.066406 109.3125 159.492188 105.96875 158.890625 C 105.628906 158.828125 105.289062 158.765625 104.941406 158.699219 C 97.730469 157.582031 86.308594 157.28125 79.96875 161.6875 C 76.617188 164.539062 74.5625 167.949219 73.816406 172.320312 C 73.78125 172.84375 73.761719 173.371094 73.746094 173.898438 C 73.734375 174.347656 73.734375 174.347656 73.71875 174.804688 C 73.703125 175.429688 73.6875 176.050781 73.671875 176.671875 C 73.523438 181.277344 72.125 184.457031 68.78125 187.703125 C 65.882812 190.28125 62.667969 191.480469 58.820312 191.410156 C 54.875 191.117188 51.601562 189.492188 48.929688 186.585938 C 46.339844 183.042969 45.488281 179.445312 45.855469 175.117188 C 46.648438 171.054688 48.617188 167.941406 52.007812 165.605469 C 55.070312 163.683594 58.226562 163.3125 61.757812 163.386719 C 66.710938 163.480469 70.871094 162.164062 74.65625 158.890625 C 74.84375 158.730469 75.035156 158.570312 75.230469 158.40625 C 78.394531 155.519531 80.117188 151.347656 80.320312 147.105469 C 80.339844 145.488281 80.242188 143.976562 79.96875 142.386719 C 79.574219 137.628906 81.058594 132.925781 84.097656 129.257812 C 86.59375 126.460938 89.75 124.554688 93.386719 123.644531 C 93.699219 123.566406 93.699219 123.566406 94.015625 123.484375 C 98.898438 122.730469 103.292969 123.617188 107.367188 126.441406 Z M 107.367188 126.441406 "/>
<path style=" stroke:none;fill-rule:nonzero;fill:rgb(98.039216%,98.039216%,98.039216%);fill-opacity:1;" d="M 33.371094 55.855469 C 36.292969 58.433594 37.914062 62.125 38.265625 65.964844 C 38.308594 66.902344 38.296875 67.828125 38.28125 68.765625 C 38.207031 73.828125 39.441406 78.210938 42.984375 81.945312 C 44.203125 83.167969 45.496094 84.160156 46.972656 85.039062 C 47.1875 85.171875 47.402344 85.304688 47.621094 85.4375 C 50.679688 87.148438 53.851562 87.394531 57.269531 87.09375 C 62.46875 86.636719 67.433594 87.105469 71.664062 90.507812 C 75.558594 93.847656 77.949219 98.210938 78.371094 103.359375 C 78.488281 107.960938 77.117188 112.238281 73.992188 115.65625 C 71.871094 117.871094 69.714844 119.492188 66.824219 120.566406 C 66.652344 120.640625 66.476562 120.714844 66.296875 120.792969 C 63.617188 121.789062 60.710938 121.457031 57.90625 121.390625 C 51.960938 121.261719 47.300781 122.40625 42.902344 126.597656 C 38.828125 130.691406 38.21875 135.777344 38.195312 141.265625 C 38.121094 145.277344 37.082031 148.792969 34.289062 151.761719 C 31.195312 154.675781 27.75 156.078125 23.488281 156.09375 C 19.867188 155.914062 16.609375 154.246094 14.03125 151.742188 C 11.273438 148.660156 10.054688 145.085938 10.238281 140.96875 C 10.613281 137.105469 12.414062 133.703125 15.378906 131.199219 C 15.570312 131.03125 15.765625 130.863281 15.964844 130.691406 C 19.242188 128.136719 22.71875 127.714844 26.726562 127.824219 C 31.316406 127.933594 35.320312 126.125 38.664062 123.058594 C 43.5625 118.003906 43.503906 108.984375 43.410156 102.421875 C 43.285156 97.898438 42.757812 93.46875 41.101562 89.238281 C 40.925781 88.777344 40.925781 88.777344 40.746094 88.308594 C 39.253906 84.871094 36.097656 82.808594 32.714844 81.402344 C 30.054688 80.546875 27.527344 80.441406 24.753906 80.417969 C 20.71875 80.335938 17.257812 78.976562 14.296875 76.175781 C 11.535156 73.175781 10.15625 69.808594 10.214844 65.726562 C 10.386719 61.949219 12.027344 58.425781 14.800781 55.84375 C 20.535156 51.332031 27.632812 51.527344 33.371094 55.855469 Z M 33.371094 55.855469 "/>
<path style=" stroke:none;fill-rule:nonzero;fill:rgb(98.039216%,98.039216%,98.039216%);fill-opacity:1;" d="M 68.484375 20.242188 C 70.941406 22.175781 73.015625 25.441406 73.535156 28.535156 C 73.5625 29.035156 73.578125 29.539062 73.585938 30.042969 C 73.707031 36.132812 74.402344 41.179688 78.875 45.691406 C 83.707031 50.132812 92.71875 50.324219 98.941406 50.152344 C 105.113281 49.863281 112.714844 49.402344 117.164062 44.59375 C 120.128906 40.945312 121.125 36.929688 121.050781 32.308594 C 120.996094 27.8125 122.382812 24.300781 125.496094 20.988281 C 128.710938 17.964844 132.136719 16.949219 136.480469 16.988281 C 139.199219 17.179688 141.5 18.328125 143.71875 19.863281 C 143.894531 19.984375 144.074219 20.105469 144.257812 20.234375 C 146.824219 22.214844 148.523438 25.644531 149.03125 28.8125 C 149.324219 33.019531 148.386719 36.820312 145.621094 40.054688 C 143.050781 42.769531 139.957031 44.621094 136.164062 44.796875 C 135.871094 44.800781 135.578125 44.804688 135.277344 44.808594 C 128.808594 44.921875 123.867188 45.613281 119.113281 50.351562 C 118.910156 50.546875 118.707031 50.746094 118.5 50.945312 C 115.300781 54.257812 114.238281 58.675781 114.300781 63.167969 C 114.355469 64.042969 114.492188 64.875 114.636719 65.738281 C 114.976562 70.652344 113.65625 75.390625 110.464844 79.175781 C 107.359375 82.613281 103.039062 84.765625 98.414062 85.101562 C 93.851562 85.234375 89.386719 83.863281 85.855469 80.914062 C 82.199219 77.316406 79.984375 72.828125 79.914062 67.660156 C 79.929688 66.730469 79.976562 65.824219 80.105469 64.898438 C 80.761719 60.214844 79.699219 55.734375 76.921875 51.925781 C 73.90625 48.183594 70.480469 45.851562 65.707031 45.039062 C 65.117188 45.011719 64.527344 44.996094 63.933594 44.988281 C 58.382812 44.894531 53.816406 44.714844 49.542969 40.753906 C 46.839844 37.835938 45.675781 34.230469 45.722656 30.300781 C 45.890625 26.183594 47.707031 22.964844 50.609375 20.140625 C 56.089844 15.675781 62.933594 16.300781 68.484375 20.242188 Z M 68.484375 20.242188 "/>
<path style=" stroke:none;fill-rule:nonzero;fill:rgb(98.039216%,98.039216%,98.039216%);fill-opacity:1;" d="M 411.921875 40.804688 C 412.238281 40.804688 412.238281 40.804688 412.558594 40.804688 C 413.269531 40.804688 413.976562 40.804688 414.6875 40.804688 C 415.195312 40.804688 415.703125 40.804688 416.210938 40.804688 C 417.59375 40.804688 418.976562 40.804688 420.359375 40.804688 C 421.8125 40.804688 423.265625 40.804688 424.714844 40.804688 C 427.160156 40.804688 429.605469 40.804688 432.046875 40.804688 C 434.859375 40.808594 437.671875 40.804688 440.480469 40.804688 C 442.902344 40.804688 445.324219 40.804688 447.742188 40.804688 C 449.183594 40.804688 450.628906 40.804688 452.070312 40.804688 C 468.316406 40.792969 486.425781 40.894531 498.867188 53.046875 C 504.84375 59.109375 507.902344 67.101562 508.324219 75.53125 C 508.339844 75.851562 508.355469 76.171875 508.371094 76.5 C 508.574219 85.378906 505.730469 94.097656 499.558594 100.582031 C 491.101562 109.097656 479.644531 112.308594 468.058594 113.855469 C 469.898438 116.269531 471.746094 118.679688 473.617188 121.074219 C 475.203125 123.105469 476.75 125.160156 478.292969 127.226562 C 479.558594 128.921875 480.851562 130.59375 482.167969 132.253906 C 483.234375 133.605469 484.28125 134.972656 485.328125 136.34375 C 485.910156 137.097656 486.492188 137.855469 487.074219 138.609375 C 487.304688 138.914062 487.539062 139.214844 487.769531 139.519531 C 487.886719 139.667969 488.003906 139.820312 488.121094 139.972656 C 491.265625 144.066406 494.410156 148.15625 497.558594 152.246094 C 497.671875 152.398438 497.789062 152.546875 497.90625 152.703125 C 498.140625 153.007812 498.375 153.308594 498.609375 153.613281 C 499.179688 154.359375 499.75 155.101562 500.324219 155.84375 C 501.796875 157.761719 503.265625 159.679688 504.734375 161.597656 C 505.574219 162.699219 506.417969 163.800781 507.265625 164.894531 C 510.28125 168.800781 510.28125 168.800781 510.28125 169.242188 C 503.925781 169.855469 503.925781 169.855469 502.128906 168.933594 C 501.164062 168.097656 500.582031 167.023438 499.988281 165.910156 C 499.402344 164.886719 498.65625 163.992188 497.925781 163.070312 C 497.617188 162.667969 497.308594 162.261719 497 161.859375 C 496.839844 161.648438 496.683594 161.441406 496.519531 161.226562 C 496.355469 161.007812 496.191406 160.792969 496.019531 160.570312 C 495.664062 160.101562 495.308594 159.636719 494.953125 159.167969 C 494.007812 157.929688 493.0625 156.6875 492.117188 155.449219 C 491.183594 154.21875 490.246094 152.988281 489.308594 151.757812 C 488.179688 150.277344 487.050781 148.792969 485.925781 147.3125 C 485.542969 146.8125 485.164062 146.3125 484.78125 145.8125 C 484.597656 145.570312 484.410156 145.324219 484.21875 145.074219 C 483.203125 143.738281 482.183594 142.40625 481.164062 141.074219 C 479.722656 139.1875 478.292969 137.296875 476.871094 135.398438 C 475.859375 134.042969 474.835938 132.699219 473.808594 131.355469 C 473.65625 131.15625 473.507812 130.960938 473.351562 130.757812 C 472.582031 129.75 471.808594 128.746094 471.035156 127.738281 C 469.53125 125.785156 468.050781 123.820312 466.632812 121.796875 C 465.449219 120.125 464.179688 118.519531 462.902344 116.917969 C 462.742188 116.710938 462.578125 116.507812 462.414062 116.296875 C 462.269531 116.117188 462.125 115.933594 461.976562 115.746094 C 461.628906 115.253906 461.628906 115.253906 461.347656 114.414062 C 446.125 114.414062 430.898438 114.414062 415.214844 114.414062 C 415.214844 132.507812 415.214844 150.601562 415.214844 169.242188 C 413.277344 169.242188 411.339844 169.242188 409.34375 169.242188 C 409.34375 126.960938 409.34375 84.683594 409.34375 41.121094 C 410.171875 40.707031 411.011719 40.804688 411.921875 40.804688 Z M 414.933594 46.4375 C 414.925781 54.566406 414.921875 62.695312 414.917969 70.824219 C 414.917969 71.574219 414.917969 72.324219 414.917969 73.074219 C 414.917969 73.261719 414.917969 73.445312 414.917969 73.640625 C 414.917969 76.664062 414.914062 79.6875 414.914062 82.710938 C 414.910156 85.808594 414.910156 88.910156 414.90625 92.007812 C 414.90625 93.75 414.90625 95.492188 414.90625 97.234375 C 414.902344 98.875 414.902344 100.511719 414.902344 102.148438 C 414.902344 102.753906 414.902344 103.355469 414.902344 103.957031 C 414.898438 104.777344 414.898438 105.597656 414.902344 106.417969 C 414.898438 106.660156 414.898438 106.898438 414.898438 107.148438 C 414.796875 108.210938 414.796875 108.210938 415.214844 109.097656 C 415.839844 109.128906 416.46875 109.136719 417.097656 109.136719 C 417.398438 109.136719 417.398438 109.136719 417.703125 109.140625 C 418.375 109.140625 419.050781 109.144531 419.722656 109.144531 C 420.207031 109.144531 420.6875 109.144531 421.167969 109.148438 C 422.480469 109.152344 423.796875 109.152344 425.109375 109.152344 C 425.933594 109.15625 426.753906 109.15625 427.578125 109.15625 C 430.160156 109.160156 432.742188 109.164062 435.324219 109.164062 C 438.292969 109.167969 441.261719 109.171875 444.226562 109.179688 C 446.527344 109.183594 448.824219 109.1875 451.125 109.1875 C 452.496094 109.1875 453.863281 109.191406 455.234375 109.195312 C 465.804688 109.242188 465.804688 109.242188 476.203125 107.472656 C 476.488281 107.398438 476.777344 107.328125 477.070312 107.253906 C 483.800781 105.511719 489.605469 102.457031 494.621094 97.628906 C 494.804688 97.464844 494.988281 97.304688 495.179688 97.136719 C 499.519531 93.171875 502.121094 86.347656 502.503906 80.597656 C 502.699219 73.355469 501.929688 66.769531 497.699219 60.703125 C 497.550781 60.492188 497.40625 60.285156 497.253906 60.070312 C 491.929688 52.863281 484.011719 49.363281 475.46875 47.484375 C 475.28125 47.441406 475.09375 47.402344 474.898438 47.359375 C 470.671875 46.492188 466.371094 46.355469 462.070312 46.375 C 461.554688 46.375 461.035156 46.375 460.515625 46.371094 C 459.125 46.371094 457.738281 46.375 456.347656 46.378906 C 454.886719 46.382812 453.429688 46.382812 451.96875 46.382812 C 449.214844 46.386719 446.460938 46.390625 443.707031 46.394531 C 440.566406 46.402344 437.425781 46.40625 434.285156 46.410156 C 427.835938 46.414062 421.386719 46.425781 414.933594 46.4375 Z M 414.933594 46.4375 "/>
<path style=" stroke:none;fill-rule:nonzero;fill:rgb(98.039216%,98.039216%,98.039216%);fill-opacity:1;" d="M 612.054688 39.722656 C 612.269531 39.753906 612.488281 39.785156 612.710938 39.816406 C 624.007812 41.519531 634.46875 46.875 642.941406 54.445312 C 643.347656 54.804688 643.757812 55.164062 644.167969 55.519531 C 645.609375 56.789062 646.910156 58.097656 648.125 59.585938 C 648.242188 59.726562 648.359375 59.863281 648.480469 60.011719 C 657.6875 71.046875 663.417969 84.566406 664.378906 98.957031 C 664.402344 99.304688 664.421875 99.652344 664.449219 100.007812 C 665.566406 117.445312 660.902344 135.296875 649.523438 148.820312 C 649.390625 148.984375 649.253906 149.144531 649.117188 149.3125 C 644.710938 154.640625 639.738281 158.863281 633.863281 162.527344 C 633.695312 162.632812 633.53125 162.738281 633.355469 162.847656 C 619.132812 171.613281 600.941406 173.605469 584.847656 169.792969 C 575.800781 167.554688 567.652344 163.519531 560.328125 157.773438 C 559.894531 157.433594 559.894531 157.433594 559.453125 157.085938 C 557.207031 155.292969 555.179688 153.320312 553.316406 151.128906 C 552.917969 150.660156 552.507812 150.195312 552.09375 149.738281 C 549.84375 147.214844 548.078125 144.445312 546.347656 141.546875 C 546.234375 141.355469 546.117188 141.160156 545.996094 140.960938 C 535.945312 124.136719 534.523438 104.078125 539.078125 85.320312 C 539.609375 83.316406 540.265625 81.371094 541.035156 79.445312 C 541.121094 79.234375 541.203125 79.027344 541.289062 78.8125 C 541.898438 77.320312 542.570312 75.859375 543.273438 74.410156 C 543.386719 74.175781 543.5 73.941406 543.617188 73.699219 C 545.351562 70.160156 547.316406 66.914062 549.703125 63.78125 C 549.84375 63.597656 549.980469 63.414062 550.125 63.226562 C 555.121094 56.703125 555.121094 56.703125 556.972656 55.949219 C 556.972656 55.761719 556.972656 55.578125 556.972656 55.386719 C 557.40625 54.992188 557.859375 54.617188 558.320312 54.25 C 559.550781 53.273438 559.550781 53.273438 560.75 52.261719 C 574.703125 40.257812 594.328125 37.078125 612.054688 39.722656 Z M 589.128906 45.039062 C 588.761719 45.109375 588.761719 45.109375 588.390625 45.179688 C 577.375 47.371094 568.132812 52.765625 560.050781 60.421875 C 559.859375 60.601562 559.667969 60.78125 559.472656 60.964844 C 558.039062 62.347656 556.816406 63.902344 555.574219 65.457031 C 555.417969 65.648438 555.261719 65.835938 555.097656 66.027344 C 548.816406 73.703125 545.226562 83.257812 543.273438 92.875 C 543.222656 93.121094 543.171875 93.371094 543.121094 93.625 C 540.074219 109.566406 543.789062 127.371094 552.867188 140.757812 C 554.867188 143.636719 557.066406 146.285156 559.488281 148.820312 C 559.636719 148.976562 559.78125 149.128906 559.929688 149.289062 C 563.429688 152.996094 567.347656 156.109375 571.792969 158.613281 C 571.988281 158.722656 572.179688 158.832031 572.378906 158.945312 C 586.003906 166.609375 602.292969 168.050781 617.292969 164 C 624.511719 161.929688 631.609375 158.324219 637.21875 153.296875 C 637.628906 152.933594 637.628906 152.933594 638.042969 152.566406 C 638.898438 151.796875 639.738281 151.011719 640.574219 150.21875 C 640.835938 149.976562 641.09375 149.730469 641.363281 149.476562 C 652.785156 138.410156 658.535156 122.074219 658.828125 106.386719 C 658.964844 89.410156 652.992188 73.195312 641.136719 60.984375 C 640.9375 60.777344 640.9375 60.777344 640.738281 60.570312 C 632.683594 52.167969 621.824219 46.6875 610.378906 44.757812 C 610.101562 44.710938 610.101562 44.710938 609.816406 44.660156 C 603.179688 43.539062 595.71875 43.777344 589.128906 45.039062 Z M 589.128906 45.039062 "/>
<path style=" stroke:none;fill-rule:nonzero;fill:rgb(98.039216%,98.039216%,98.039216%);fill-opacity:1;" d="M 228.4375 41.121094 C 230.46875 41.121094 232.496094 41.121094 234.589844 41.121094 C 234.589844 61.246094 234.589844 81.371094 234.589844 102.105469 C 263.652344 102.105469 292.71875 102.105469 322.664062 102.105469 C 322.664062 81.980469 322.664062 61.855469 322.664062 41.121094 C 324.601562 41.121094 326.539062 41.121094 328.535156 41.121094 C 328.535156 83.402344 328.535156 125.679688 328.535156 169.242188 C 326.597656 169.242188 324.660156 169.242188 322.664062 169.242188 C 322.664062 148.839844 322.664062 128.4375 322.664062 107.417969 C 293.597656 107.417969 264.535156 107.417969 234.589844 107.417969 C 234.589844 127.820312 234.589844 148.222656 234.589844 169.242188 C 232.558594 169.242188 230.527344 169.242188 228.4375 169.242188 C 228.4375 126.960938 228.4375 84.683594 228.4375 41.121094 Z M 228.4375 41.121094 "/>
<path style=" stroke:none;fill-rule:nonzero;fill:rgb(98.039216%,98.039216%,98.039216%);fill-opacity:1;" d="M 366.003906 76.929688 C 367.941406 76.929688 369.878906 76.929688 371.875 76.929688 C 371.875 107.390625 371.875 137.855469 371.875 169.242188 C 369.9375 169.242188 368 169.242188 366.003906 169.242188 C 366.003906 138.777344 366.003906 108.316406 366.003906 76.929688 Z M 366.003906 76.929688 "/>
<path style=" stroke:none;fill-rule:nonzero;fill:rgb(98.039216%,98.039216%,98.039216%);fill-opacity:1;" d="M 141.445312 132.527344 C 144.027344 134.414062 145.472656 136.792969 146.234375 139.871094 C 146.59375 143.699219 145.832031 146.5 143.492188 149.535156 C 142.5625 150.570312 141.585938 151.257812 140.363281 151.898438 C 140.160156 152.011719 139.957031 152.128906 139.746094 152.246094 C 137.167969 153.511719 133.8125 153.457031 131.117188 152.5625 C 128.289062 151.339844 125.921875 149.144531 124.640625 146.320312 C 123.414062 143.070312 123.628906 139.972656 124.984375 136.792969 C 126.59375 133.914062 128.71875 132.128906 131.832031 131.074219 C 135.238281 130.15625 138.417969 130.636719 141.445312 132.527344 Z M 141.445312 132.527344 "/>
<path style=" stroke:none;fill-rule:nonzero;fill:rgb(98.039216%,98.039216%,98.039216%);fill-opacity:1;" d="M 142.320312 57.625 C 144.59375 59.75 146.03125 62.199219 146.328125 65.339844 C 146.359375 68.394531 145.886719 70.828125 143.996094 73.292969 C 143.800781 73.570312 143.605469 73.84375 143.402344 74.128906 C 141.652344 76.175781 138.871094 77.351562 136.242188 77.574219 C 133.128906 77.707031 130.476562 77.171875 128.015625 75.164062 C 125.335938 72.699219 123.9375 70.027344 123.761719 66.367188 C 123.847656 63.21875 125.089844 60.476562 127.21875 58.1875 C 131.605469 54.382812 137.664062 54.019531 142.320312 57.625 Z M 142.320312 57.625 "/>
<path style=" stroke:none;fill-rule:nonzero;fill:rgb(98.039216%,98.039216%,98.039216%);fill-opacity:1;" d="M 67.117188 57.792969 C 69.234375 59.773438 70.574219 62.28125 70.84375 65.171875 C 70.945312 68.667969 70.222656 71.398438 67.925781 74.140625 C 67.007812 75.074219 66.015625 75.742188 64.867188 76.367188 C 64.664062 76.484375 64.460938 76.601562 64.253906 76.71875 C 61.679688 77.972656 58.335938 77.925781 55.640625 77.050781 C 52.65625 75.765625 50.414062 73.519531 49.144531 70.554688 C 48.277344 68.042969 48.210938 64.558594 49.214844 62.089844 C 50.609375 59.308594 52.71875 56.878906 55.675781 55.71875 C 59.75 54.375 63.746094 55.15625 67.117188 57.792969 Z M 67.117188 57.792969 "/>
<path style=" stroke:none;fill-rule:nonzero;fill:rgb(98.039216%,98.039216%,98.039216%);fill-opacity:1;" d="M 65.824219 132.402344 C 68.101562 133.902344 69.8125 136.183594 70.597656 138.804688 C 71.246094 142.355469 70.789062 145.304688 68.921875 148.398438 C 67.707031 150.144531 66.164062 151.175781 64.308594 152.179688 C 64.046875 152.328125 64.046875 152.328125 63.78125 152.484375 C 61.488281 153.59375 58.015625 153.359375 55.640625 152.578125 C 52.839844 151.363281 50.511719 149.171875 49.246094 146.375 C 48.335938 143.738281 48.152344 140.234375 49.214844 137.617188 C 50.027344 136 50.917969 134.644531 52.285156 133.433594 C 52.4375 133.296875 52.589844 133.160156 52.742188 133.015625 C 56.59375 129.78125 61.671875 130.003906 65.824219 132.402344 Z M 65.824219 132.402344 "/>
<path style=" stroke:none;fill-rule:nonzero;fill:rgb(98.039216%,98.039216%,98.039216%);fill-opacity:1;" d="M 103.121094 94.449219 C 106.03125 96.402344 107.761719 98.941406 108.488281 102.382812 C 108.828125 105.308594 108.324219 108.125 106.617188 110.566406 C 104.628906 112.96875 102.390625 114.753906 99.261719 115.253906 C 95.742188 115.492188 93.101562 114.921875 90.3125 112.734375 C 88.152344 110.765625 86.519531 108.507812 86.332031 105.539062 C 86.238281 101.96875 86.742188 99.363281 89.140625 96.570312 C 92.769531 92.894531 98.578125 91.8125 103.121094 94.449219 Z M 103.121094 94.449219 "/>
<path style=" stroke:none;fill-rule:nonzero;fill:rgb(98.039216%,98.039216%,98.039216%);fill-opacity:1;" d="M 365.164062 40.28125 C 367.746094 40.28125 370.332031 40.28125 372.992188 40.28125 C 372.992188 43.882812 372.992188 47.484375 372.992188 51.191406 C 370.410156 51.191406 367.828125 51.191406 365.164062 51.191406 C 365.164062 47.59375 365.164062 43.992188 365.164062 40.28125 Z M 365.164062 40.28125 "/>
<path style=" stroke:none;fill-rule:nonzero;fill:rgb(48.235294%,54.11765%,75.686276%);fill-opacity:1;" d="M 678.882812 0 C 678.972656 0 679.066406 0 679.160156 0 C 679.160156 70.621094 679.160156 141.238281 679.160156 214 C 679.070312 214 678.976562 214 678.882812 214 C 678.882812 143.378906 678.882812 72.761719 678.882812 0 Z M 678.882812 0 "/>
</g>
</svg>
