<svg width="680" height="120" viewBox="0 0 680 120" fill="none" xmlns="http://www.w3.org/2000/svg">
<path fill-rule="evenodd" clip-rule="evenodd" d="M20 0C31.0457 0 40 8.9543 40 20V100C40 111.046 31.0457 120 20 120C8.9543 120 0 111.046 0 100V20C0 8.9543 8.9543 0 20 0Z" fill="url(#paint0_linear_1642_12)"/>
<path fill-rule="evenodd" clip-rule="evenodd" d="M5.85786 5.85786C13.6684 -1.95262 26.3316 -1.95262 34.1421 5.85786L114.142 85.8579C121.953 93.6684 121.953 106.332 114.142 114.142C106.332 121.953 93.6684 121.953 85.8579 114.142L5.85786 34.1421C-1.95262 26.3316 -1.95262 13.6684 5.85786 5.85786Z" fill="#1D59F2"/>
<path d="M120 20C120 31.0457 111.046 40 100 40C88.9543 40 80 31.0457 80 20C80 8.9543 88.9543 0 100 0C111.046 0 120 8.9543 120 20Z" fill="url(#paint1_linear_1642_12)"/>
<path d="M271.161 5V113.412H251.258L203.841 45.1781H203.043V113.412H180V5H200.223L247.267 73.1809H248.225V5H271.161Z" fill="#0F1024"/>
<path d="M321.032 115C312.623 115 305.386 113.306 299.319 109.918C293.288 106.495 288.64 101.66 285.376 95.4139C282.112 89.1322 280.48 81.7036 280.48 73.128C280.48 64.7642 282.112 57.4238 285.376 51.1068C288.64 44.7899 293.235 39.8669 299.159 36.3378C305.12 32.8088 312.109 31.0443 320.127 31.0443C325.52 31.0443 330.54 31.9089 335.188 33.6381C339.871 35.332 343.951 37.8906 347.427 41.3138C350.94 44.7369 353.672 49.0423 355.623 54.23C357.574 59.3824 358.55 65.4171 358.55 72.334V78.5274H289.527V64.5525H337.21C337.21 61.3057 336.5 58.4296 335.081 55.924C333.662 53.4183 331.693 51.4597 329.174 50.0481C326.69 48.6012 323.799 47.8778 320.5 47.8778C317.058 47.8778 314.007 48.6718 311.346 50.2599C308.721 51.8126 306.663 53.9124 305.173 56.5592C303.683 59.1707 302.92 62.0821 302.885 65.2935V78.5804C302.885 82.6035 303.63 86.0796 305.12 89.0087C306.645 91.9378 308.792 94.1963 311.559 95.7844C314.326 97.3725 317.608 98.1665 321.404 98.1665C323.923 98.1665 326.229 97.8136 328.322 97.1078C330.416 96.402 332.207 95.3433 333.697 93.9317C335.188 92.5201 336.323 90.7908 337.103 88.744L358.071 90.1203C357.007 95.1315 354.825 99.5075 351.525 103.248C348.261 106.954 344.039 109.848 338.86 111.93C333.715 113.977 327.773 115 321.032 115Z" fill="#0F1024"/>
<path d="M382.889 113.412L360.645 32.103H383.581L396.247 86.7324H396.992L410.19 32.103H432.701L446.112 86.4148H446.803L459.256 32.103H482.14L459.948 113.412H435.947L421.898 62.2762H420.887L406.837 113.412H382.889Z" fill="#0F1024"/>
<path d="M488.665 113.412V5H531.664C539.895 5 546.92 6.46455 552.738 9.39365C558.592 12.2875 563.045 16.3988 566.096 21.7276C569.182 27.0212 570.726 33.2499 570.726 40.4139C570.726 47.6131 569.165 53.8065 566.043 58.9942C562.92 64.1466 558.397 68.0991 552.472 70.8518C546.583 73.6044 539.452 74.9808 531.079 74.9808H502.288V56.5592H527.354C531.753 56.5592 535.407 55.9593 538.316 54.7594C541.226 53.5595 543.39 51.7597 544.809 49.36C546.263 46.9602 546.991 43.9782 546.991 40.4139C546.991 36.8142 546.263 33.7793 544.809 31.309C543.39 28.8386 541.208 26.9682 538.263 25.6978C535.354 24.392 531.682 23.7392 527.247 23.7392H511.708V113.412H488.665ZM547.523 64.076L574.611 113.412H549.173L522.67 64.076H547.523Z" fill="#0F1024"/>
<path d="M599.801 113.412H575.109L612.733 5H642.429L680 113.412H655.307L628.007 29.7738H627.155L599.801 113.412ZM598.258 70.7988H656.584V88.691H598.258V70.7988Z" fill="#0F1024"/>
<defs>
<linearGradient id="paint0_linear_1642_12" x1="20" y1="-2" x2="21.5" y2="118.5" gradientUnits="userSpaceOnUse">
<stop stop-color="#0239C6"/>
<stop offset="1" stop-color="#1D59F2"/>
</linearGradient>
<linearGradient id="paint1_linear_1642_12" x1="80" y1="0" x2="120" y2="40" gradientUnits="userSpaceOnUse">
<stop stop-color="#0239C6"/>
<stop offset="1" stop-color="#1D59F2"/>
</linearGradient>
</defs>
</svg>
