<?xml version="1.0" encoding="UTF-8"?>
<svg xmlns="http://www.w3.org/2000/svg" xmlns:xlink="http://www.w3.org/1999/xlink" width="122px" height="120px" viewBox="0 0 121 120" version="1.1">
<g id="surface1">
<path style=" stroke:none;fill-rule:nonzero;fill:rgb(98.039216%,98.039216%,98.039216%);fill-opacity:1;" d="M 66.367188 73.066406 C 68.511719 74.921875 69.859375 77.394531 70.199219 80.234375 C 70.210938 80.535156 70.21875 80.832031 70.21875 81.132812 C 70.21875 81.21875 70.21875 81.304688 70.21875 81.390625 C 70.214844 82.042969 70.152344 82.679688 70.074219 83.328125 C 69.769531 86.011719 70.398438 88.632812 72.03125 90.792969 C 73.402344 92.535156 75.039062 93.800781 77.125 94.535156 C 77.199219 94.5625 77.273438 94.585938 77.347656 94.613281 C 78.746094 95.078125 80.179688 95.039062 81.632812 95.003906 C 84.238281 94.945312 86.367188 95.59375 88.292969 97.414062 C 89.992188 99.101562 90.84375 101.117188 90.902344 103.523438 C 90.863281 105.839844 90.003906 107.945312 88.410156 109.621094 C 86.769531 111.210938 84.554688 112.152344 82.265625 112.109375 C 79.964844 111.976562 77.917969 110.980469 76.316406 109.300781 C 75.53125 108.386719 74.933594 107.394531 74.46875 106.277344 C 74.4375 106.203125 74.40625 106.125 74.375 106.042969 C 74.019531 105.058594 74.070312 104.027344 74.066406 102.996094 C 74.058594 101.675781 74.007812 100.46875 73.664062 99.1875 C 73.640625 99.101562 73.617188 99.019531 73.59375 98.933594 C 73.113281 97.269531 72.167969 95.871094 70.917969 94.691406 C 70.777344 94.535156 70.777344 94.535156 70.777344 94.300781 C 70.710938 94.269531 70.644531 94.238281 70.574219 94.207031 C 70.3125 94.070312 70.3125 94.070312 70.09375 93.917969 C 65.699219 90.933594 58.3125 91.578125 53.386719 92.496094 C 50.757812 93.019531 48.730469 93.980469 47.160156 96.269531 C 45.921875 98.160156 45.464844 100.117188 45.492188 102.371094 C 45.523438 105.253906 44.832031 107.464844 42.828125 109.601562 C 41.347656 111.042969 39.585938 111.894531 37.523438 112.09375 C 37.4375 112.101562 37.351562 112.109375 37.261719 112.117188 C 35.175781 112.214844 33.042969 111.324219 31.5 109.957031 C 29.722656 108.277344 28.765625 106.367188 28.609375 103.90625 C 28.550781 101.714844 29.210938 99.890625 30.480469 98.140625 C 30.535156 98.0625 30.585938 97.988281 30.640625 97.910156 C 31.855469 96.339844 33.878906 95.332031 35.808594 95.046875 C 36.6875 94.953125 37.578125 94.996094 38.464844 95.003906 C 41.632812 95.027344 44.222656 94.097656 46.53125 91.859375 C 48.339844 89.992188 49.496094 87.554688 49.558594 84.921875 C 49.550781 84.375 49.492188 83.851562 49.417969 83.3125 C 49.007812 80.296875 49.503906 77.511719 51.261719 75 C 52.230469 73.757812 53.378906 72.777344 54.726562 71.976562 C 54.800781 71.933594 54.875 71.886719 54.949219 71.84375 C 58.597656 69.824219 63.179688 70.539062 66.367188 73.066406 Z M 66.367188 73.066406 "/>
<path style=" stroke:none;fill-rule:nonzero;fill:rgb(98.039216%,98.039216%,98.039216%);fill-opacity:1;" d="M 19.28125 28.605469 C 19.386719 28.652344 19.496094 28.699219 19.605469 28.75 C 21.539062 29.703125 22.902344 31.5 23.667969 33.488281 C 23.96875 34.410156 24.148438 35.292969 24.132812 36.265625 C 24.132812 36.417969 24.132812 36.570312 24.128906 36.726562 C 24.125 36.96875 24.125 37.207031 24.121094 37.445312 C 24.074219 40.488281 24.839844 43.191406 26.902344 45.464844 C 26.988281 45.5625 27.078125 45.664062 27.167969 45.765625 C 28.855469 47.578125 31.316406 48.742188 33.785156 48.855469 C 34.585938 48.859375 35.355469 48.832031 36.144531 48.722656 C 39.039062 48.316406 41.757812 49.007812 44.121094 50.734375 C 46.265625 52.414062 47.6875 54.730469 48.144531 57.441406 C 48.160156 57.53125 48.175781 57.621094 48.191406 57.710938 C 48.566406 60.464844 47.851562 63.277344 46.203125 65.5 C 44.460938 67.769531 42.007812 69.265625 39.175781 69.679688 C 38.117188 69.800781 37.144531 69.769531 36.085938 69.652344 C 33.15625 69.328125 30.457031 69.898438 28.113281 71.773438 C 25.867188 73.6875 24.464844 75.980469 24.152344 78.984375 C 24.097656 79.828125 24.136719 80.679688 24.15625 81.523438 C 24.171875 83.097656 23.957031 84.527344 23.207031 85.929688 C 23.15625 86.027344 23.105469 86.125 23.050781 86.226562 C 22.625 86.996094 22.085938 87.628906 21.476562 88.253906 C 21.40625 88.328125 21.335938 88.402344 21.265625 88.476562 C 19.921875 89.773438 17.992188 90.453125 16.164062 90.582031 C 16.089844 90.585938 16.019531 90.59375 15.941406 90.597656 C 13.921875 90.691406 11.988281 89.910156 10.390625 88.722656 C 10.316406 88.667969 10.242188 88.613281 10.164062 88.558594 C 8.527344 87.28125 7.5625 85.164062 7.273438 83.140625 C 7.039062 80.710938 7.71875 78.628906 9.210938 76.707031 C 10.585938 75.027344 12.441406 73.964844 14.554688 73.53125 C 15.085938 73.480469 15.605469 73.488281 16.136719 73.496094 C 19.125 73.542969 21.898438 72.960938 24.125 70.820312 C 24.28125 70.664062 24.4375 70.507812 24.59375 70.347656 C 24.671875 70.269531 24.753906 70.1875 24.839844 70.105469 C 27.589844 67.1875 27.335938 61.367188 27.261719 57.613281 C 27.183594 54.414062 26.769531 50.175781 24.476562 47.734375 C 22.347656 45.703125 19.832031 44.734375 16.90625 44.773438 C 14.125 44.789062 11.9375 44.222656 9.855469 42.253906 C 8.132812 40.503906 7.238281 38.464844 7.238281 36 C 7.273438 33.675781 8.25 31.707031 9.867188 30.0625 C 12.425781 27.636719 16.113281 27.160156 19.28125 28.605469 Z M 19.28125 28.605469 "/>
<path style=" stroke:none;fill-rule:nonzero;fill:rgb(98.039216%,98.039216%,98.039216%);fill-opacity:1;" d="M 108.972656 29.460938 C 109.132812 29.601562 109.296875 29.742188 109.453125 29.882812 C 109.539062 29.960938 109.625 30.039062 109.714844 30.117188 C 111.214844 31.542969 112.183594 33.449219 112.265625 35.539062 C 112.308594 38.386719 111.515625 40.367188 109.570312 42.457031 C 108.277344 43.714844 106.304688 44.734375 104.492188 44.773438 C 104.371094 44.773438 104.253906 44.769531 104.128906 44.765625 C 100.863281 44.710938 97.898438 45.109375 95.429688 47.484375 C 95.273438 47.644531 95.117188 47.808594 94.96875 47.972656 C 94.792969 48.140625 94.792969 48.140625 94.558594 48.140625 C 94.527344 48.203125 94.496094 48.269531 94.464844 48.335938 C 94.375 48.515625 94.277344 48.695312 94.179688 48.875 C 91.328125 54.1875 91.730469 62.011719 93.378906 67.609375 C 94.082031 69.808594 95.539062 71.28125 97.535156 72.347656 C 98.441406 72.816406 99.339844 73.140625 100.332031 73.371094 C 100.417969 73.390625 100.5 73.414062 100.585938 73.433594 C 101.003906 73.503906 101.417969 73.507812 101.84375 73.507812 C 102.03125 73.511719 102.214844 73.515625 102.402344 73.515625 C 102.6875 73.519531 102.976562 73.523438 103.265625 73.527344 C 105.605469 73.542969 107.542969 74.109375 109.339844 75.699219 C 109.421875 75.769531 109.507812 75.84375 109.59375 75.921875 C 110.972656 77.214844 112.117188 79.050781 112.242188 80.984375 C 112.285156 83.574219 111.9375 85.730469 110.195312 87.738281 C 108.621094 89.351562 106.648438 90.449219 104.371094 90.5 C 101.898438 90.515625 99.878906 89.898438 98 88.234375 C 96.222656 86.421875 95.398438 84.148438 95.367188 81.628906 C 95.371094 81.386719 95.375 81.144531 95.378906 80.90625 C 95.425781 78.125 94.988281 75.683594 93.175781 73.488281 C 93.089844 73.382812 93.003906 73.277344 92.917969 73.171875 C 91.28125 71.261719 89.015625 69.785156 86.476562 69.535156 C 86.015625 69.519531 85.554688 69.519531 85.09375 69.519531 C 84.972656 69.519531 84.847656 69.519531 84.722656 69.519531 C 84.101562 69.519531 83.515625 69.558594 82.898438 69.652344 C 79.960938 69.8125 77.210938 69.207031 74.953125 67.199219 C 72.988281 65.390625 71.492188 62.992188 71.335938 60.253906 C 71.28125 58.824219 71.265625 57.421875 71.699219 56.046875 C 71.757812 55.859375 71.757812 55.859375 71.820312 55.667969 C 72.78125 52.90625 74.796875 50.835938 77.355469 49.535156 C 79.339844 48.613281 81.429688 48.398438 83.578125 48.695312 C 85.050781 48.855469 86.558594 48.789062 87.980469 48.371094 C 88.09375 48.34375 88.207031 48.3125 88.324219 48.28125 C 89.972656 47.804688 91.292969 46.792969 92.480469 45.582031 C 92.574219 45.488281 92.667969 45.398438 92.761719 45.304688 C 93.945312 44.0625 94.71875 42.589844 95.136719 40.929688 C 95.160156 40.847656 95.179688 40.761719 95.203125 40.675781 C 95.464844 39.457031 95.414062 38.195312 95.421875 36.957031 C 95.433594 35.378906 95.515625 33.96875 96.257812 32.542969 C 96.296875 32.464844 96.335938 32.386719 96.378906 32.304688 C 96.734375 31.625 97.160156 31.035156 97.675781 30.464844 C 97.765625 30.359375 97.765625 30.359375 97.859375 30.25 C 100.679688 27.117188 105.722656 27.023438 108.972656 29.460938 Z M 108.972656 29.460938 "/>
<path style=" stroke:none;fill-rule:nonzero;fill:rgb(98.039216%,98.039216%,98.039216%);fill-opacity:1;" d="M 41.679688 7.675781 C 42.21875 8.097656 42.703125 8.578125 43.179688 9.070312 C 43.300781 9.1875 43.300781 9.1875 43.421875 9.308594 C 44.914062 10.890625 45.519531 12.972656 45.484375 15.117188 C 45.425781 18.367188 46.09375 20.972656 48.375 23.371094 C 48.472656 23.476562 48.570312 23.582031 48.671875 23.691406 C 51.828125 26.625 57.628906 26.539062 61.667969 26.382812 C 65.089844 26.203125 69.125 25.730469 71.574219 23.085938 C 73.359375 21.070312 74.167969 18.449219 74.113281 15.769531 C 74.0625 12.992188 74.695312 10.808594 76.621094 8.765625 C 78.230469 7.132812 80.230469 6.230469 82.503906 6.214844 C 84.601562 6.242188 86.367188 6.890625 87.980469 8.253906 C 88.074219 8.328125 88.167969 8.398438 88.265625 8.472656 C 89.796875 9.773438 90.625 11.886719 90.867188 13.835938 C 91.050781 16.453125 90.234375 18.640625 88.550781 20.628906 C 87.144531 22.140625 85.0625 23.117188 83.015625 23.253906 C 82.605469 23.257812 82.199219 23.253906 81.789062 23.25 C 78.570312 23.199219 75.664062 23.78125 73.265625 26.085938 C 71.300781 28.046875 69.964844 30.523438 69.945312 33.363281 C 69.949219 33.96875 70.003906 34.554688 70.082031 35.152344 C 70.457031 38.097656 69.890625 41.101562 68.054688 43.488281 C 66.214844 45.726562 63.746094 47.152344 60.867188 47.527344 C 60.707031 47.542969 60.546875 47.550781 60.382812 47.558594 C 60.300781 47.5625 60.214844 47.566406 60.125 47.570312 C 57.605469 47.644531 55.011719 46.808594 53.109375 45.117188 C 53.019531 45.039062 52.925781 44.964844 52.832031 44.886719 C 50.84375 43.1875 49.585938 40.753906 49.300781 38.140625 C 49.285156 37.753906 49.285156 37.371094 49.285156 36.984375 C 49.285156 36.882812 49.285156 36.785156 49.285156 36.683594 C 49.285156 36.15625 49.316406 35.648438 49.390625 35.125 C 49.699219 32.378906 49.132812 29.664062 47.453125 27.441406 C 45.6875 25.285156 43.324219 23.597656 40.5 23.277344 C 39.617188 23.21875 38.722656 23.238281 37.835938 23.257812 C 35.703125 23.300781 33.847656 22.910156 32.097656 21.628906 C 31.9375 21.515625 31.9375 21.515625 31.777344 21.398438 C 30.050781 20.085938 29.035156 18.132812 28.683594 16 C 28.40625 13.683594 28.929688 11.410156 30.324219 9.535156 C 33.058594 6.046875 37.988281 5.128906 41.679688 7.675781 Z M 41.679688 7.675781 "/>
<path style=" stroke:none;fill-rule:nonzero;fill:rgb(98.039216%,98.039216%,98.039216%);fill-opacity:1;" d="M 86.714844 30.859375 C 88.070312 32 88.855469 33.441406 89.21875 35.183594 C 89.367188 37.203125 88.976562 39.105469 87.648438 40.683594 C 86.429688 42.050781 84.769531 42.945312 82.933594 43.046875 C 80.945312 43.070312 79.183594 42.496094 77.71875 41.101562 C 76.425781 39.789062 75.773438 38.101562 75.710938 36.273438 C 75.742188 34.324219 76.472656 32.601562 77.832031 31.234375 C 80.328125 28.953125 84.035156 28.761719 86.714844 30.859375 Z M 86.714844 30.859375 "/>
<path style=" stroke:none;fill-rule:nonzero;fill:rgb(98.039216%,98.039216%,98.039216%);fill-opacity:1;" d="M 86.679688 76.636719 C 88.234375 77.972656 89.105469 79.660156 89.273438 81.703125 C 89.339844 83.539062 88.707031 85.199219 87.539062 86.589844 C 86.191406 88.023438 84.472656 88.8125 82.515625 88.886719 C 80.632812 88.832031 79.003906 88.128906 77.632812 86.816406 C 76.339844 85.378906 75.6875 83.628906 75.707031 81.683594 C 75.867188 79.675781 76.71875 78.113281 78.179688 76.746094 C 80.65625 74.660156 84.140625 74.71875 86.679688 76.636719 Z M 86.679688 76.636719 "/>
<path style=" stroke:none;fill-rule:nonzero;fill:rgb(98.039216%,98.039216%,98.039216%);fill-opacity:1;" d="M 63.617188 53.488281 C 65.183594 54.722656 66.195312 56.257812 66.503906 58.253906 C 66.644531 60.054688 66.335938 61.855469 65.167969 63.28125 C 63.9375 64.707031 62.421875 65.789062 60.5 65.949219 C 58.519531 66.058594 56.742188 65.550781 55.210938 64.238281 C 53.847656 62.898438 53.082031 61.265625 52.992188 59.339844 C 53.007812 57.496094 53.613281 55.722656 54.878906 54.363281 C 57.265625 52.113281 60.851562 51.546875 63.617188 53.488281 Z M 63.617188 53.488281 "/>
<path style=" stroke:none;fill-rule:nonzero;fill:rgb(98.039216%,98.039216%,98.039216%);fill-opacity:1;" d="M 40.65625 76.222656 C 40.84375 76.355469 41.03125 76.488281 41.21875 76.628906 C 41.335938 76.710938 41.457031 76.796875 41.578125 76.882812 C 42.515625 77.71875 43.136719 78.820312 43.527344 80 C 43.554688 80.082031 43.585938 80.164062 43.613281 80.25 C 44.117188 82.0625 43.699219 83.921875 42.835938 85.539062 C 41.945312 87.035156 40.507812 88.117188 38.847656 88.609375 C 36.8125 89.085938 35.050781 88.738281 33.25 87.675781 C 31.867188 86.800781 30.960938 85.335938 30.503906 83.777344 C 30.046875 81.742188 30.421875 79.785156 31.519531 78.023438 C 33.636719 75.09375 37.613281 74.332031 40.65625 76.222656 Z M 40.65625 76.222656 "/>
<path style=" stroke:none;fill-rule:nonzero;fill:rgb(98.039216%,98.039216%,98.039216%);fill-opacity:1;" d="M 40.871094 30.582031 C 42.445312 31.820312 43.472656 33.339844 43.757812 35.347656 C 43.914062 37.226562 43.554688 38.917969 42.363281 40.417969 C 41.039062 41.964844 39.519531 42.867188 37.480469 43.058594 C 35.570312 43.125 33.933594 42.53125 32.464844 41.300781 C 31.25 40.148438 30.414062 38.503906 30.328125 36.808594 C 30.289062 34.792969 30.722656 33.054688 32.117188 31.539062 C 34.4375 29.140625 38.0625 28.636719 40.871094 30.582031 Z M 40.871094 30.582031 "/>
</g>
</svg>
